# xmcd CD database file
#
# Track frame offsets:
#	150
#	32293
#	52478
#	75000
#	98854
#	113892
#	140013
#	156637
#	183648
#	200550
#	220984
#	233834
#	258330
#	276648
#	304482
#
# Disc length: 4256 seconds
#
# Revision: 0
# Processed by: cddbd v1.5.2PL0 Copyright (c) Steve Scherf et al.
# Submitted via: CDex 1.77
#
DISCID=e5109e0f
DTITLE=Jimmy Smith - Who's Afraid Of Virginia Woolf 1964 (1 - 7) - Christmas '64 1964 (8 - 15)
DYEAR=1964
DGENRE=Jazz
TTITLE0=Slaughter On Tenth Avenue
TTITLE1=Who's Afraid Of Virginia Woolf (Part 1)
TTITLE2=Who's Afraid Of Virginia Woolf (Part 2)
TTITLE3=John Brown's Body
TTITLE4=Wives And Lovers
TTITLE5=Women Of The World
TTITLE6=Bluesette
TTITLE7=Baby It's Cold Outside
TTITLE8=We Three Kings
TTITLE9=The Christmas Song
TTITLE10=White Christmas
TTITLE11=Santa Claus Is Coming To Town
TTITLE12=Silent Night
TTITLE13=God Rest Ye Merry Gentlemen
TTITLE14=Jinge Bells
EXTD=YEAR: 1964
EXTT0=
EXTT1=
EXTT2=
EXTT3=
EXTT4=
EXTT5=
EXTT6=
EXTT7=
EXTT8=
EXTT9=
EXTT10=
EXTT11=
EXTT12=
EXTT13=
EXTT14=
PLAYORDER=
